<svg xmlns="http://www.w3.org/2000/svg"  viewBox="0 0 64 64" width="64px" height="64px"><radialGradient id="yFoTWH71MPPG9suz04XUPa" cx="31.766" cy="1.043" r="23.517" gradientTransform="matrix(1 0 0 -1 0 30)" gradientUnits="userSpaceOnUse"><stop offset="0" stop-color="#f4e9c3"/><stop offset=".219" stop-color="#f8eecd"/><stop offset=".644" stop-color="#fdf4dc"/><stop offset="1" stop-color="#fff6e1"/></radialGradient><path fill="url(#yFoTWH71MPPG9suz04XUPa)" d="M63.92,51.25C63.57,52.88,62.05,54,60.38,54H50.5c-0.83,0-1.5,0.67-1.5,1.5s0.67,1.5,1.5,1.5	h2c1.79,0,3.25,1.35,3.46,3.08c0.02,0.13,0.04,0.26,0.04,0.39v0.03c0,0.05-0.01,0.1-0.02,0.15c0,0.1-0.01,0.2-0.03,0.3	C55.73,62.67,54.28,64,52.5,64h-42c-2,0-3.6-1.67-3.5-3.69C7.1,58.42,8.8,57,10.7,57h1.8c0.83,0,1.5-0.67,1.5-1.5S13.33,54,12.5,54	H3c-1.71,0-3.08-1.42-3-3.16C0.09,49.22,1.54,48,3.16,48H12V33H6c-2.33,0-4.22-2.03-3.98-4.41C2.23,26.51,4.1,25,6.19,25H9.5	c2,0,3.6-1.67,3.5-3.69C12.9,19.42,11.2,18,9.3,18H4c-2.33,0-4.22-2.03-3.98-4.41C0.23,11.51,2.1,10,4.19,10H15	c1.21,0,2.16-1.06,1.97-2.32C16.82,6.69,15.89,6,14.89,6H12.5c-1.46,0-2.62-1.24-2.49-2.73C10.12,1.96,11.32,1,12.64,1H48.5	c1.46,0,2.62,1.24,2.49,2.73C50.88,5.04,49.68,6,48.36,6H43.5C42.67,6,42,6.67,42,7.5S42.67,9,43.5,9h15c1.46,0,2.62,1.24,2.49,2.73	C60.88,13.04,59.68,14,58.36,14H58c-1.21,0-2.16,1.06-1.97,2.32c0.15,0.99,1.08,1.68,2.08,1.68h1.7c2.09,0,3.96,1.51,4.17,3.59	C64.22,23.97,62.33,26,60,26h-6c-1.71,0-3.08,1.42-3,3.16c0.09,1.62,1.54,2.84,3.16,2.84H59c1.85,0,3.32,1.69,2.94,3.6	c-0.29,1.43-1.63,2.4-3.08,2.4H52c0,3,0,6,0.14,9h8.36C62.67,47,64.39,49.01,63.92,51.25z"/><linearGradient id="yFoTWH71MPPG9suz04XUPb" x1="32" x2="32" y1="680" y2="719.979" gradientTransform="matrix(1 0 0 -1 0 732)" gradientUnits="userSpaceOnUse"><stop offset="0" stop-color="#7363de"/><stop offset=".342" stop-color="#7880e5"/><stop offset=".775" stop-color="#7da0ec"/></linearGradient><path fill="url(#yFoTWH71MPPG9suz04XUPb)" d="M51.681,17.802c0,0-5.037-4.812-11.212-5.767c-0.611-0.094-1.172,0.287-1.362,0.873	l-0.034,0.104c-0.204,0.629-0.344,0.904-0.49,1.428c-3.579-0.464-10.572-0.451-13.322-0.049c-0.097-0.67-0.195-0.925-0.366-1.473	c-0.166-0.605-0.77-0.967-1.392-0.865c-6.43,1.062-11.185,5.748-11.185,5.748s-6.057,8.734-7.312,25.886	c-0.048,0.65,0.17,1.312,0.624,1.78c5.036,5.195,11.736,6.293,14.27,6.525c0.664,0.061,1.304-0.246,1.677-0.802	c0.635-0.944,0.191-2.22-0.846-2.688c-1.052-0.68-1.672-1.021-2.937-2.242C17.654,46.118,17.833,45.89,18,46	c3.963,2.613,9.971,2.644,13.985,2.659C35.998,48.675,42.007,48.239,46,46c0.167-0.11,0.347,0.118,0.205,0.26	c-0.73,0.795-1.742,1.51-2.927,2.225c-1.011,0.61-1.49,1.761-0.856,2.705c0.374,0.556,1.013,0.863,1.677,0.802	c2.534-0.232,9.233-1.33,14.27-6.525c0.454-0.468,0.671-1.13,0.624-1.78C57.739,26.536,51.681,17.802,51.681,17.802z M24.5,40	c-2.485,0-4.5-2.239-4.5-5s2.015-5,4.5-5s4.5,2.239,4.5,5S26.985,40,24.5,40z M39.5,40c-2.485,0-4.5-2.239-4.5-5s2.015-5,4.5-5	s4.5,2.239,4.5,5S41.985,40,39.5,40z"/></svg>